<?xml version="1.0" standalone="no"?><!DOCTYPE svg PUBLIC "-//W3C//DTD SVG 1.1//EN" "http://www.w3.org/Graphics/SVG/1.1/DTD/svg11.dtd"><svg t="1591436988141" class="icon" viewBox="0 0 1024 1024" version="1.1" xmlns="http://www.w3.org/2000/svg" p-id="1166" xmlns:xlink="http://www.w3.org/1999/xlink" width="200" height="200"><defs><style type="text/css"></style></defs><path d="M512 554.666667h-42.666667a42.666667 42.666667 0 0 1 0-85.333334h42.666667V341.333333a42.666667 42.666667 0 0 1 42.666667-42.666666h128a42.666667 42.666667 0 0 1 0 85.333333h-85.333334v85.333333h85.333334a42.666667 42.666667 0 0 1 0 85.333334h-85.333334v298.666666a42.666667 42.666667 0 0 1-42.666666 42.666667H170.666667a42.666667 42.666667 0 0 1-42.666667-42.666667V170.666667a42.666667 42.666667 0 0 1 42.666667-42.666667h682.666666a42.666667 42.666667 0 0 1 42.666667 42.666667v682.666666a42.666667 42.666667 0 0 1-42.666667 42.666667h-128a42.666667 42.666667 0 0 1 0-85.333333h85.333334V213.333333H213.333333v597.333334h298.666667v-256z" p-id="1167" fill="#1296db"></path></svg>