<?xml version="1.0" standalone="no"?><!DOCTYPE svg PUBLIC "-//W3C//DTD SVG 1.1//EN" "http://www.w3.org/Graphics/SVG/1.1/DTD/svg11.dtd"><svg t="1602155246257" class="icon" viewBox="0 0 1024 1024" version="1.1" xmlns="http://www.w3.org/2000/svg" p-id="1273" xmlns:xlink="http://www.w3.org/1999/xlink" width="200" height="200"><defs><style type="text/css"></style></defs><path d="M680.96 955.733333h-85.333333a17.066667 17.066667 0 1 1 0-34.133333h85.333333c18.670933 0 34.2016-6.673067 47.4624-20.394667 14.148267-13.6704 20.804267-29.201067 20.804267-47.872 0-18.7904-6.741333-34.645333-20.599467-48.520533C715.349333 791.534933 699.767467 785.066667 680.96 785.066667H255.146667a17.066667 17.066667 0 1 1 0-34.133334H680.96c27.921067 0 52.087467 10.018133 71.799467 29.7472 20.309333 20.309333 30.600533 44.7488 30.600533 72.6528 0 28.023467-10.359467 52.258133-30.805333 72.004267C733.218133 945.373867 708.983467 955.733333 680.96 955.733333z m-169.813333-85.333333h-170.666667a17.066667 17.066667 0 1 1 0-34.133333h170.666667a17.066667 17.066667 0 1 1 0 34.133333z m85.333333-170.666667h-256a17.066667 17.066667 0 1 1 0-34.133333h256c18.653867 0 34.184533-6.673067 47.4624-20.394667 14.148267-13.6704 20.804267-29.201067 20.804267-47.872 0-18.7904-6.741333-34.645333-20.599467-48.520533C630.852267 535.534933 615.2704 529.066667 596.48 529.066667a17.066667 17.066667 0 1 1 0-34.133334c27.904 0 52.053333 10.001067 71.799467 29.7472 20.292267 20.292267 30.600533 44.7488 30.600533 72.6528 0 28.023467-10.359467 52.258133-30.805333 72.004267C648.704 689.373867 624.4864 699.733333 596.48 699.733333zM768 614.4a17.066667 17.066667 0 1 1 0-34.133333c42.939733 0 78.609067-14.830933 109.1072-45.346134C907.042133 504.9856 921.6 469.572267 921.6 426.666667c0-42.9568-14.574933-78.677333-44.5952-109.2096C846.677333 287.6416 810.973867 273.066667 768 273.066667a97.28 97.28 0 0 0-11.5712 0.7168 17.2032 17.2032 0 0 1-18.193067-11.3152c-11.605333-33.194667-30.907733-63.470933-57.3952-89.975467C633.668267 125.320533 578.4576 102.4 512 102.4s-121.668267 22.920533-168.840533 70.0928S273.066667 274.875733 273.066667 341.333333v6.826667a17.066667 17.066667 0 0 1-22.6816 16.110933A112.6912 112.6912 0 0 0 213.333333 358.4c-30.856533 0-56.490667 10.6496-78.3872 32.546133S102.4 438.4768 102.4 469.333333s10.6496 56.490667 32.546133 78.3872C156.8256 569.617067 182.459733 580.266667 213.333333 580.266667h382.293334a17.066667 17.066667 0 1 1 0 34.133333H213.333333c-39.8336 0-74.325333-14.318933-102.519466-42.5472C82.5856 543.6416 68.266667 509.1328 68.266667 469.333333s14.318933-74.2912 42.5472-102.519466S173.533867 324.266667 213.333333 324.266667c8.942933 0 17.6128 0.7168 25.9584 2.116266 3.3792-68.625067 30.1568-128.443733 79.7184-178.0224C372.1728 95.214933 437.0944 68.266667 512 68.266667c74.922667 0 139.8272 26.948267 192.9728 80.093866 26.88 26.897067 47.3088 57.326933 60.859733 90.589867L768 238.933333c51.626667 0 96.426667 18.295467 133.137067 54.391467C937.437867 330.257067 955.733333 375.04 955.733333 426.666667c0 51.694933-18.3296 96.238933-54.493866 132.386133C864.546133 595.780267 819.712 614.4 768 614.4z" p-id="1274" fill="#d4237a"></path></svg>