<?xml version="1.0" standalone="no"?><!DOCTYPE svg PUBLIC "-//W3C//DTD SVG 1.1//EN" "http://www.w3.org/Graphics/SVG/1.1/DTD/svg11.dtd"><svg t="1591440792431" class="icon" viewBox="0 0 1024 1024" version="1.1" xmlns="http://www.w3.org/2000/svg" p-id="2209" xmlns:xlink="http://www.w3.org/1999/xlink" width="200" height="200"><defs><style type="text/css"></style></defs><path d="M922.677895 463.494737a156.294737 156.294737 0 0 0-156.294737-156.294737 154.677895 154.677895 0 0 0-23.174737 1.886316h-1.886316a215.578947 215.578947 0 0 0-424.690526-33.145263 182.433684 182.433684 0 0 0-134.736842 176.774736 184.858947 184.858947 0 0 0 26.947368 93.507369 26.947368 26.947368 0 1 0 46.349474-26.947369 130.964211 130.964211 0 0 1-18.324211-66.290526 128 128 0 0 1 107.789474-126.922105l19.941053-2.694737 2.425263-21.288421a161.684211 161.684211 0 0 1 320.943158 18.324211v8.623157a156.025263 156.025263 0 0 0-47.696842 43.385264A26.947368 26.947368 0 0 0 683.115789 404.210526a102.4 102.4 0 0 1 35.570527-30.989473h2.694737c2.694737 0 5.658947-2.155789 8.353684-3.233685a105.903158 105.903158 0 0 1 14.282105-4.850526 101.861053 101.861053 0 0 1 19.402105-2.425263h2.694737a107.789474 107.789474 0 0 1 102.4 110.214737 109.406316 109.406316 0 0 1-102.4 110.214737h-51.738947a26.947368 26.947368 0 0 0 0 53.894736h52.008421a161.684211 161.684211 0 0 0 156.294737-164.109473v-6.467369-2.96421z" fill="#2c2c2c" p-id="2210"></path><path d="M541.103158 473.734737a93.507368 93.507368 0 0 0-66.56 26.947368A26.947368 26.947368 0 0 0 512 538.947368a40.151579 40.151579 0 1 1 28.294737 68.446316H128.269474a26.947368 26.947368 0 0 0 0 53.894737h412.833684a94.046316 94.046316 0 0 0 0-187.553684zM402.324211 730.004211H128.269474a26.947368 26.947368 0 0 0 0 53.894736h274.054737a40.151579 40.151579 0 1 1-28.294737 68.446316 26.947368 26.947368 0 0 0-38.265263 37.99579 94.046316 94.046316 0 1 0 66.56-160.336842z" fill="#2c2c2c" p-id="2211"></path></svg>